<?xml version="1.0" encoding="iso-8859-1"?>
<!-- Generator: Adobe Illustrator 19.0.0, SVG Export Plug-In . SVG Version: 6.00 Build 0)  -->
<svg version="1.1" id="Capa_1" xmlns="http://www.w3.org/2000/svg" xmlns:xlink="http://www.w3.org/1999/xlink" x="0px" y="0px"
	 viewBox="0 0 512 512" style="enable-background:new 0 0 512 512;" xml:space="preserve">
<g>
	<circle style="fill:#235087;" cx="153.6" cy="145.067" r="34.133"/>
	<rect x="136.533" y="375.467" style="fill:#235087;" width="34.133" height="34.133"/>
</g>
<rect x="264.533" y="51.2" style="fill:#FFA511;" width="238.933" height="136.533"/>
<g>
	<rect x="264.533" y="187.733" style="fill:#FFDC13;" width="238.933" height="34.133"/>
	<rect x="8.533" y="256" style="fill:#FFDC13;" width="494.933" height="34.133"/>
</g>
<polygon style="fill:#F08015;" points="349.867,221.867 341.333,256 426.667,256 418.133,221.867 "/>
<path style="fill:#4DB5FF;" d="M110.933,238.933L110.933,238.933c0-18.85,15.283-34.133,34.133-34.133h17.067
	c18.85,0,34.133,15.283,34.133,34.133H110.933z"/>
<path style="fill:#F08015;" d="M392.183,187.733h111.283V57.779C482.321,112.546,443.042,158.413,392.183,187.733z"/>
<path style="fill:#E5AF17;" d="M264.533,221.867h238.933v-34.133H392.183C353.374,210.142,309.342,221.918,264.533,221.867z"/>
<g>
	<path style="fill:#EF2648;" d="M76.8,273.067v102.4h153.6v-102.4c0-18.85-15.283-34.133-34.133-34.133h-85.333
		C92.083,238.933,76.8,254.217,76.8,273.067z"/>
	<path style="fill:#EF2648;" d="M76.8,324.267H59.733c-9.429,0-17.067,7.637-17.067,17.067V358.4
		c0,9.429,7.637,17.067,17.067,17.067H76.8V324.267z"/>
</g>
<path style="fill:#B20D24;" d="M230.4,275.831c-36.446,49.997-92.134,82.483-153.6,89.6v10.035h153.6V275.831z"/>
<path id="SVGCleanerId_0" style="fill:#B20D24;" d="M247.467,324.267H230.4v51.2h17.067c9.429,0,17.067-7.637,17.067-17.067v-17.067
	C264.533,331.904,256.896,324.267,247.467,324.267z"/>
<g>
	<path id="SVGCleanerId_0_1_" style="fill:#B20D24;" d="M247.467,324.267H230.4v51.2h17.067c9.429,0,17.067-7.637,17.067-17.067
		v-17.067C264.533,331.904,256.896,324.267,247.467,324.267z"/>
</g>
<path style="fill:#B20D24;" d="M51.2,366.933c-2.099,0-4.173-0.102-6.255-0.154c3.004,5.35,8.653,8.67,14.788,8.687H76.8v-10.052
	C68.301,366.413,59.759,366.916,51.2,366.933z"/>
<g>
	<path style="fill:#163768;" d="M170.667,399.428v-23.962h-34.133v17.493C148.139,393.651,159.607,395.827,170.667,399.428z"/>
	<path style="fill:#163768;" d="M178.594,121.967c3.405,18.466-8.806,36.207-27.273,39.612
		c-11.529,2.125-23.339-1.835-31.249-10.479c3.26,18.543,20.932,30.933,39.475,27.682c18.543-3.26,30.933-20.932,27.682-39.475
		C186.086,132.813,183.091,126.788,178.594,121.967z"/>
</g>
<path d="M503.467,42.667H264.533c-4.71,0-8.533,3.823-8.533,8.533v170.667c0,4.71,3.823,8.533,8.533,8.533h74.411l-4.267,17.067
	H230.178c-6.383-8.508-15.71-14.319-26.163-16.282c-3.729-20.207-21.333-34.884-41.882-34.918h-17.067
	c-20.548,0.034-38.153,14.711-41.882,34.918c-10.453,1.963-19.78,7.774-26.163,16.282H8.533C3.823,247.467,0,251.29,0,256v204.8
	c0,4.71,3.823,8.533,8.533,8.533s8.533-3.823,8.533-8.533V298.667h51.2v17.067h-8.533c-14.14,0-25.6,11.46-25.6,25.6V358.4
	c0,14.14,11.46,25.6,25.6,25.6H128v25.6c0,4.71,3.823,8.533,8.533,8.533h8.533V435.2H102.4c-4.71,0-8.533,3.823-8.533,8.533V460.8
	c0,4.71,3.823,8.533,8.533,8.533c4.71,0,8.533-3.823,8.533-8.533v-8.533h34.133v8.533c0,4.71,3.823,8.533,8.533,8.533
	s8.533-3.823,8.533-8.533v-8.533h34.133v8.533c0,4.71,3.823,8.533,8.533,8.533c4.71,0,8.533-3.823,8.533-8.533v-17.067
	c0-4.71-3.823-8.533-8.533-8.533h-42.667v-17.067h8.533c4.71,0,8.533-3.823,8.533-8.533V384h68.267c14.14,0,25.6-11.46,25.6-25.6
	v-17.067c0-14.14-11.46-25.6-25.6-25.6h-8.533v-17.067h256V460.8c0,4.71,3.823,8.533,8.533,8.533c4.71,0,8.533-3.823,8.533-8.533
	V256c0-4.71-3.823-8.533-8.533-8.533h-70.144l-4.267-17.067h74.411c4.71,0,8.533-3.823,8.533-8.533V51.2
	C512,46.49,508.177,42.667,503.467,42.667z M273.067,59.733h221.867V179.2H273.067V59.733z M145.067,213.333h17.067
	c10.846,0.017,20.514,6.844,24.141,17.067h-65.348C124.553,220.177,134.221,213.35,145.067,213.333z M17.067,281.6v-17.067H69.12
	c-0.572,2.807-0.853,5.666-0.853,8.533v8.533H17.067z M51.2,358.4v-17.067c0-4.71,3.823-8.533,8.533-8.533h8.533v34.133h-8.533
	C55.023,366.933,51.2,363.11,51.2,358.4z M85.333,324.267v-51.2c0-14.14,11.46-25.6,25.6-25.6h85.333c14.14,0,25.6,11.46,25.6,25.6
	v93.867H85.333V324.267z M162.133,401.067h-17.067V384h17.067V401.067z M247.467,332.8c4.71,0,8.533,3.823,8.533,8.533V358.4
	c0,4.71-3.823,8.533-8.533,8.533h-8.533V332.8H247.467z M494.933,281.6h-256v-8.533c0-2.867-0.282-5.726-0.853-8.533h256.853V281.6z
	 M415.736,247.467h-63.471l4.267-17.067h54.938L415.736,247.467z M494.933,213.333H273.067v-17.067h221.867V213.333z"/>
<path d="M153.6,102.4c-23.561,0-42.667,19.106-42.667,42.667s19.106,42.667,42.667,42.667s42.667-19.106,42.667-42.667
	C196.241,121.515,177.152,102.426,153.6,102.4z M153.6,170.667c-14.14,0-25.6-11.46-25.6-25.6c0-14.14,11.46-25.6,25.6-25.6
	c14.14,0,25.6,11.46,25.6,25.6C179.2,159.206,167.74,170.667,153.6,170.667z"/>
<g>
</g>
<g>
</g>
<g>
</g>
<g>
</g>
<g>
</g>
<g>
</g>
<g>
</g>
<g>
</g>
<g>
</g>
<g>
</g>
<g>
</g>
<g>
</g>
<g>
</g>
<g>
</g>
<g>
</g>
</svg>
